<svg width="24" height="24" viewBox="0 0 24 24" fill="none" xmlns="http://www.w3.org/2000/svg">
<rect y="7.62939e-06" width="24" height="24" rx="4" fill="#384959"/>
<g clip-path="url(#clip0_80_218)">
<path d="M15 6.12L15 17.29C15.0011 17.4886 14.9431 17.6831 14.8333 17.8486C14.7235 18.0141 14.5669 18.1432 14.3835 18.2194C14.2 18.2955 13.998 18.3154 13.8033 18.2763C13.6086 18.2372 13.4299 18.141 13.29 18L7.70998 12.41C7.52373 12.2226 7.41919 11.9692 7.41919 11.705C7.41919 11.4408 7.52373 11.1874 7.70998 11L13.29 5.41C13.4299 5.26897 13.6086 5.17279 13.8033 5.13372C13.9981 5.09465 14.2 5.11447 14.3835 5.19063C14.5669 5.2668 14.7235 5.39587 14.8333 5.56139C14.9431 5.72691 15.0011 5.92138 15 6.12Z" fill="white"/>
</g>
<defs>
<clipPath id="clip0_80_218">
<rect width="24" height="24" fill="white" transform="translate(24 24) rotate(-180)"/>
</clipPath>
</defs>
</svg>
