<svg width="28" height="28" viewBox="0 0 28 28" fill="none" xmlns="http://www.w3.org/2000/svg">
<path d="M26.9745 10.5556L18.1253 1.70523C17.0301 0.613218 15.5466 0 14 0C12.4533 0 10.9698 0.613218 9.87462 1.70523L1.02545 10.5556C0.699279 10.8796 0.440681 11.2652 0.264645 11.69C0.0886103 12.1148 -0.00136032 12.5703 -5.07571e-05 13.0301V24.4832C-5.07571e-05 25.4115 0.368698 26.3017 1.02508 26.9581C1.68145 27.6145 2.57169 27.9832 3.49995 27.9832H24.5C25.4282 27.9832 26.3184 27.6145 26.9748 26.9581C27.6312 26.3017 28 25.4115 28 24.4832V13.0301C28.0013 12.5703 27.9113 12.1148 27.7353 11.69C27.5592 11.2652 27.3006 10.8796 26.9745 10.5556ZM17.5 25.6499H10.5V21.0602C10.5 20.132 10.8687 19.2417 11.5251 18.5854C12.1815 17.929 13.0717 17.5602 14 17.5602C14.9282 17.5602 15.8184 17.929 16.4748 18.5854C17.1312 19.2417 17.5 20.132 17.5 21.0602V25.6499ZM25.6666 24.4832C25.6666 24.7926 25.5437 25.0894 25.3249 25.3082C25.1061 25.527 24.8094 25.6499 24.5 25.6499H19.8333V21.0602C19.8333 19.5131 19.2187 18.0294 18.1247 16.9354C17.0308 15.8415 15.547 15.2269 14 15.2269C12.4529 15.2269 10.9691 15.8415 9.87516 16.9354C8.7812 18.0294 8.16662 19.5131 8.16662 21.0602V25.6499H3.49995C3.19053 25.6499 2.89378 25.527 2.67499 25.3082C2.4562 25.0894 2.33328 24.7926 2.33328 24.4832V13.0301C2.33436 12.7209 2.45717 12.4245 2.67512 12.2052L11.5243 3.3584C12.1819 2.70381 13.0721 2.33633 14 2.33633C14.9278 2.33633 15.818 2.70381 16.4756 3.3584L25.3248 12.2087C25.5419 12.4272 25.6646 12.7221 25.6666 13.0301V24.4832Z" fill="white"/>
</svg>
