<svg width="24" height="28" viewBox="0 0 24 28" fill="none" xmlns="http://www.w3.org/2000/svg">
<path d="M17.5 16.3333C17.5 16.6427 17.3771 16.9395 17.1583 17.1583C16.9395 17.377 16.6428 17.5 16.3333 17.5H7C6.69058 17.5 6.39383 17.377 6.17504 17.1583C5.95625 16.9395 5.83333 16.6427 5.83333 16.3333C5.83333 16.0239 5.95625 15.7271 6.17504 15.5083C6.39383 15.2895 6.69058 15.1666 7 15.1666H16.3333C16.6428 15.1666 16.9395 15.2895 17.1583 15.5083C17.3771 15.7271 17.5 16.0239 17.5 16.3333ZM12.8333 19.8333H7C6.69058 19.8333 6.39383 19.9562 6.17504 20.175C5.95625 20.3938 5.83333 20.6905 5.83333 21C5.83333 21.3094 5.95625 21.6061 6.17504 21.8249C6.39383 22.0437 6.69058 22.1666 7 22.1666H12.8333C13.1428 22.1666 13.4395 22.0437 13.6583 21.8249C13.8771 21.6061 14 21.3094 14 21C14 20.6905 13.8771 20.3938 13.6583 20.175C13.4395 19.9562 13.1428 19.8333 12.8333 19.8333ZM23.3333 12.2325V22.1666C23.3315 23.7132 22.7163 25.1958 21.6227 26.2894C20.5292 27.3829 19.0465 27.9981 17.5 28H5.83333C4.28681 27.9981 2.80415 27.3829 1.71059 26.2894C0.617029 25.1958 0.0018525 23.7132 0 22.1666V5.8333C0.0018525 4.28677 0.617029 2.80412 1.71059 1.71056C2.80415 0.616995 4.28681 0.00181836 5.83333 -3.4145e-05H11.1008C12.1737 -0.00279556 13.2365 0.207152 14.2278 0.617668C15.219 1.02818 16.119 1.63113 16.8758 2.39163L20.9405 6.45863C21.7014 7.21491 22.3048 8.11467 22.7155 9.10577C23.1262 10.0969 23.3362 11.1596 23.3333 12.2325ZM15.2262 4.0413C14.859 3.68565 14.4468 3.37971 14 3.1313V8.16663C14 8.47605 14.1229 8.7728 14.3417 8.99159C14.5605 9.21038 14.8572 9.3333 15.1667 9.3333H20.202C19.9534 8.88669 19.6471 8.4748 19.2908 8.1083L15.2262 4.0413ZM21 12.2325C21 12.04 20.9627 11.8556 20.9452 11.6666H15.1667C14.2384 11.6666 13.3482 11.2979 12.6918 10.6415C12.0354 9.98513 11.6667 9.09489 11.6667 8.16663V2.38813C11.4777 2.37063 11.2922 2.3333 11.1008 2.3333H5.83333C4.90508 2.3333 4.01484 2.70205 3.35846 3.35843C2.70208 4.0148 2.33333 4.90504 2.33333 5.8333V22.1666C2.33333 23.0949 2.70208 23.9851 3.35846 24.6415C4.01484 25.2979 4.90508 25.6666 5.83333 25.6666H17.5C18.4283 25.6666 19.3185 25.2979 19.9749 24.6415C20.6313 23.9851 21 23.0949 21 22.1666V12.2325Z" fill="white" fill-opacity="0.25"/>
</svg>
