<svg width="28" height="28" viewBox="0 0 28 28" fill="none" xmlns="http://www.w3.org/2000/svg">
<g clip-path="url(#clip0_173_243)">
<path d="M28 28H14.021C11.2898 27.9987 8.61865 27.1986 6.33653 25.6981C4.0544 24.1977 2.26098 22.0626 1.17717 19.5556C0.0933523 17.0487 -0.233523 14.2795 0.236804 11.5891C0.70713 8.89873 1.95412 6.40467 3.82417 4.41413C5.69422 2.42359 8.10567 1.02351 10.7615 0.386328C13.4173 -0.250851 16.2015 -0.0972949 18.7711 0.828083C21.3408 1.75346 23.5836 3.41024 25.2234 5.59436C26.8632 7.77848 27.8284 10.3945 28 13.1203V13.1938V28ZM14.021 2.33333C10.9268 2.33333 7.95934 3.5625 5.77141 5.75042C3.58349 7.93835 2.35433 10.9058 2.35433 14C2.35433 17.0942 3.58349 20.0617 5.77141 22.2496C7.95934 24.4375 10.9268 25.6667 14.021 25.6667H25.6667V13.2312C25.4666 10.2775 24.1532 7.50987 21.9916 5.4871C19.83 3.46434 16.9814 2.3372 14.021 2.33333Z" fill="white"/>
<path d="M15.1667 8.16669H8.16666V10.5H15.1667V8.16669Z" fill="white"/>
<path d="M19.8333 12.8333H8.16666V15.1666H19.8333V12.8333Z" fill="white"/>
<path d="M19.8333 17.5H8.16666V19.8333H19.8333V17.5Z" fill="white"/>
</g>
<defs>
<clipPath id="clip0_173_243">
<rect width="28" height="28" fill="white"/>
</clipPath>
</defs>
</svg>
