<svg width="28" height="28" viewBox="0 0 28 28" fill="none" xmlns="http://www.w3.org/2000/svg">
<g clip-path="url(#clip0_173_212)">
<path d="M19.8333 16.3333C19.8333 16.6427 19.7103 16.9395 19.4915 17.1583C19.2728 17.377 18.976 17.5 18.6666 17.5H9.33325C9.02383 17.5 8.72709 17.377 8.50829 17.1583C8.2895 16.9395 8.16658 16.6427 8.16658 16.3333C8.16658 16.0239 8.2895 15.7271 8.50829 15.5083C8.72709 15.2895 9.02383 15.1666 9.33325 15.1666H18.6666C18.976 15.1666 19.2728 15.2895 19.4915 15.5083C19.7103 15.7271 19.8333 16.0239 19.8333 16.3333ZM15.1666 19.8333H9.33325C9.02383 19.8333 8.72709 19.9562 8.50829 20.175C8.2895 20.3938 8.16658 20.6905 8.16658 21C8.16658 21.3094 8.2895 21.6061 8.50829 21.8249C8.72709 22.0437 9.02383 22.1666 9.33325 22.1666H15.1666C15.476 22.1666 15.7727 22.0437 15.9915 21.8249C16.2103 21.6061 16.3333 21.3094 16.3333 21C16.3333 20.6905 16.2103 20.3938 15.9915 20.175C15.7727 19.9562 15.476 19.8333 15.1666 19.8333ZM25.6666 12.2325V22.1666C25.6647 23.7132 25.0496 25.1958 23.956 26.2894C22.8624 27.3829 21.3798 27.9981 19.8333 28H8.16658C6.62006 27.9981 5.1374 27.3829 4.04384 26.2894C2.95028 25.1958 2.3351 23.7132 2.33325 22.1666V5.8333C2.3351 4.28677 2.95028 2.80412 4.04384 1.71056C5.1374 0.616995 6.62006 0.00181836 8.16658 -3.4145e-05H13.4341C14.507 -0.00279556 15.5698 0.207152 16.561 0.617668C17.5523 1.02818 18.4523 1.63113 19.2091 2.39163L23.2738 6.45863C24.0347 7.21491 24.638 8.11467 25.0487 9.10577C25.4595 10.0969 25.6695 11.1596 25.6666 12.2325ZM17.5594 4.0413C17.1922 3.68565 16.78 3.37971 16.3333 3.1313V8.16663C16.3333 8.47605 16.4562 8.7728 16.675 8.99159C16.8938 9.21038 17.1905 9.3333 17.4999 9.3333H22.5353C22.2867 8.88669 21.9803 8.4748 21.6241 8.1083L17.5594 4.0413ZM23.3333 12.2325C23.3333 12.04 23.2959 11.8556 23.2784 11.6666H17.4999C16.5717 11.6666 15.6814 11.2979 15.025 10.6415C14.3687 9.98513 13.9999 9.09489 13.9999 8.16663V2.38813C13.8109 2.37063 13.6254 2.3333 13.4341 2.3333H8.16658C7.23833 2.3333 6.34809 2.70205 5.69171 3.35843C5.03533 4.0148 4.66659 4.90504 4.66659 5.8333V22.1666C4.66659 23.0949 5.03533 23.9851 5.69171 24.6415C6.34809 25.2979 7.23833 25.6666 8.16658 25.6666H19.8333C20.7615 25.6666 21.6517 25.2979 22.3081 24.6415C22.9645 23.9851 23.3333 23.0949 23.3333 22.1666V12.2325Z" fill="white"/>
</g>
<defs>
<clipPath id="clip0_173_212">
<rect width="28" height="28" fill="white"/>
</clipPath>
</defs>
</svg>
