<svg width="28" height="28" viewBox="0 0 28 28" fill="none" xmlns="http://www.w3.org/2000/svg">
<g clip-path="url(#clip0_197_188)">
<path d="M5.83333 2.33333H7V1.16667C7 0.857247 7.12292 0.560501 7.34171 0.341709C7.5605 0.122916 7.85725 0 8.16667 0C8.47609 0 8.77283 0.122916 8.99163 0.341709C9.21042 0.560501 9.33333 0.857247 9.33333 1.16667V2.33333H18.6667V1.16667C18.6667 0.857247 18.7896 0.560501 19.0084 0.341709C19.2272 0.122916 19.5239 0 19.8333 0C20.1428 0 20.4395 0.122916 20.6583 0.341709C20.8771 0.560501 21 0.857247 21 1.16667V2.33333H22.1667C23.7132 2.33519 25.1958 2.95036 26.2894 4.04392C27.383 5.13748 27.9981 6.62014 28 8.16667L28 22.1667C27.9981 23.7132 27.383 25.1959 26.2894 26.2894C25.1958 27.383 23.7132 27.9981 22.1667 28H5.83333C4.28681 27.9981 2.80415 27.383 1.71059 26.2894C0.617029 25.1959 0.00185394 23.7132 0 22.1667V8.16667C0.00185394 6.62014 0.617029 5.13748 1.71059 4.04392C2.80415 2.95036 4.28681 2.33519 5.83333 2.33333ZM25.6667 8.16667C25.6667 7.23841 25.2979 6.34817 24.6415 5.69179C23.9852 5.03542 23.0949 4.66667 22.1667 4.66667H5.83333C4.90508 4.66667 4.01484 5.03542 3.35846 5.69179C2.70208 6.34817 2.33333 7.23841 2.33333 8.16667V9.33333H25.6667V8.16667ZM5.83333 25.6667H22.1667C23.0949 25.6667 23.9852 25.2979 24.6415 24.6415C25.2979 23.9852 25.6667 23.0949 25.6667 22.1667V11.6667H2.33333V22.1667C2.33333 23.0949 2.70208 23.9852 3.35846 24.6415C4.01484 25.2979 4.90508 25.6667 5.83333 25.6667Z" fill="white"/>
<path d="M14 19.25C13.0335 19.25 12.25 18.4665 12.25 17.5C12.25 16.5335 13.0335 15.75 14 15.75C14.9665 15.75 15.75 16.5335 15.75 17.5C15.75 18.4665 14.9665 19.25 14 19.25Z" fill="white"/>
<path d="M19.8334 19.25C18.8669 19.25 18.0834 18.4665 18.0834 17.5C18.0834 16.5335 18.8669 15.75 19.8334 15.75C20.7999 15.75 21.5834 16.5335 21.5834 17.5C21.5834 18.4665 20.7999 19.25 19.8334 19.25Z" fill="white"/>
<path d="M8.16663 19.25C7.20013 19.25 6.41663 18.4665 6.41663 17.5C6.41663 16.5335 7.20013 15.75 8.16663 15.75C9.13312 15.75 9.91663 16.5335 9.91663 17.5C9.91663 18.4665 9.13312 19.25 8.16663 19.25Z" fill="white"/>
</g>
<defs>
<clipPath id="clip0_197_188">
<rect width="28" height="28" fill="white" transform="matrix(-1 0 0 1 28 0)"/>
</clipPath>
</defs>
</svg>
