<svg width="28" height="28" viewBox="0 0 28 28" fill="none" xmlns="http://www.w3.org/2000/svg">
<g clip-path="url(#clip0_173_172)">
<path d="M15.1667 1.16664C15.1667 0.857219 15.2896 0.560472 15.5084 0.34168C15.7272 0.122887 16.0239 -2.89605e-05 16.3333 -2.89605e-05C19.4265 0.0033679 22.392 1.23362 24.5792 3.42081C26.7664 5.608 27.9966 8.57349 28 11.6666C28 11.9761 27.8771 12.2728 27.6583 12.4916C27.4395 12.7104 27.1428 12.8333 26.8333 12.8333C26.5239 12.8333 26.2272 12.7104 26.0084 12.4916C25.7896 12.2728 25.6667 11.9761 25.6667 11.6666C25.6639 9.19214 24.6797 6.81978 22.9299 5.07004C21.1802 3.32031 18.8078 2.33608 16.3333 2.3333C16.0239 2.3333 15.7272 2.21039 15.5084 1.9916C15.2896 1.7728 15.1667 1.47606 15.1667 1.16664ZM16.3333 6.99997C17.571 6.99997 18.758 7.49164 19.6332 8.36681C20.5083 9.24198 21 10.429 21 11.6666C21 11.9761 21.1229 12.2728 21.3417 12.4916C21.5605 12.7104 21.8573 12.8333 22.1667 12.8333C22.4761 12.8333 22.7728 12.7104 22.9916 12.4916C23.2104 12.2728 23.3333 11.9761 23.3333 11.6666C23.3315 9.81069 22.5934 8.03129 21.281 6.71894C19.9687 5.40658 18.1893 4.66849 16.3333 4.66664C16.0239 4.66664 15.7272 4.78956 15.5084 5.00835C15.2896 5.22714 15.1667 5.52389 15.1667 5.83331C15.1667 6.14272 15.2896 6.43947 15.5084 6.65826C15.7272 6.87706 16.0239 6.99997 16.3333 6.99997ZM26.9418 19.5288C27.6179 20.2068 27.9976 21.1252 27.9976 22.0826C27.9976 23.0401 27.6179 23.9585 26.9418 24.6365L25.8802 25.8603C16.3252 35.0081 -6.9265 11.7623 2.08017 2.17697L3.42184 1.0103C4.10057 0.353095 5.01076 -0.0104717 5.95549 -0.00173831C6.90023 0.00699508 7.80354 0.387326 8.47 1.05697C8.50617 1.09314 10.668 3.90131 10.668 3.90131C11.3095 4.5752 11.6666 5.47039 11.665 6.40078C11.6635 7.33116 11.3035 8.22517 10.6598 8.89697L9.30884 10.5956C10.0565 12.4123 11.1557 14.0633 12.5434 15.4538C13.9311 16.8442 15.5799 17.9468 17.395 18.6981L19.1042 17.339C19.7761 16.6958 20.6699 16.3362 21.6 16.3349C22.5301 16.3336 23.425 16.6907 24.0987 17.332C24.0987 17.332 26.9057 19.4926 26.9418 19.5288ZM25.3365 21.2251C25.3365 21.2251 22.5447 19.0773 22.5085 19.0411C22.2682 18.8028 21.9434 18.6691 21.6049 18.6691C21.2665 18.6691 20.9417 18.8028 20.7013 19.0411C20.6698 19.0738 18.3167 20.9486 18.3167 20.9486C18.1581 21.0749 17.9694 21.1576 17.7691 21.1887C17.5688 21.2198 17.3639 21.1982 17.1745 21.126C14.823 20.2505 12.6872 18.8798 10.9116 17.1069C9.13609 15.334 7.76231 13.2001 6.88334 10.85C6.8054 10.658 6.77999 10.4487 6.80972 10.2437C6.83946 10.0387 6.92325 9.84523 7.0525 9.68331C7.0525 9.68331 8.92734 7.32897 8.95884 7.29864C9.19715 7.05829 9.33086 6.73352 9.33086 6.39506C9.33086 6.05659 9.19715 5.73182 8.95884 5.49147C8.92267 5.45647 6.77484 2.6623 6.77484 2.6623C6.53089 2.44356 6.21251 2.32642 5.88496 2.33488C5.55741 2.34334 5.2455 2.47676 5.01317 2.7078L3.6715 3.87447C-2.91083 11.7891 17.2387 30.821 24.1745 24.2666L25.2373 23.0416C25.4864 22.8109 25.636 22.4924 25.6545 22.1535C25.673 21.8145 25.559 21.4816 25.3365 21.2251Z" fill="white"/>
</g>
<defs>
<clipPath id="clip0_173_172">
<rect width="28" height="28" fill="white"/>
</clipPath>
</defs>
</svg>
