<svg width="28" height="28" viewBox="0 0 28 28" fill="none" xmlns="http://www.w3.org/2000/svg">
<path d="M27.9723 28H13.9933C11.2622 27.9987 8.591 27.1986 6.30888 25.6981C4.02675 24.1977 2.23333 22.0626 1.14952 19.5556C0.0657033 17.0487 -0.261172 14.2795 0.209155 11.5891C0.679481 8.89873 1.92647 6.40467 3.79652 4.41413C5.66657 2.42359 8.07802 1.02351 10.7338 0.386328C13.3897 -0.250851 16.1738 -0.0972949 18.7435 0.828083C21.3131 1.75346 23.556 3.41024 25.1958 5.59436C26.8356 7.77848 27.8007 10.3945 27.9723 13.1203V13.1938V28ZM13.9933 2.33333C10.8992 2.33333 7.93169 3.5625 5.74376 5.75042C3.55584 7.93835 2.32668 10.9058 2.32668 14C2.32668 17.0942 3.55584 20.0617 5.74376 22.2496C7.93169 24.4375 10.8992 25.6667 13.9933 25.6667H25.639V13.2312C25.439 10.2775 24.1255 7.50987 21.9639 5.4871C19.8024 3.46434 16.9537 2.3372 13.9933 2.33333Z" fill="white" fill-opacity="0.25"/>
<path d="M15.139 8.16669H8.13901V10.5H15.139V8.16669Z" fill="white" fill-opacity="0.25"/>
<path d="M19.8057 12.8333H8.13901V15.1666H19.8057V12.8333Z" fill="white" fill-opacity="0.25"/>
<path d="M19.8057 17.5H8.13901V19.8333H19.8057V17.5Z" fill="white" fill-opacity="0.25"/>
</svg>
