<svg width="28" height="28" viewBox="0 0 28 28" fill="none" xmlns="http://www.w3.org/2000/svg">
<path d="M15.1211 1.16664C15.1211 0.857219 15.244 0.560472 15.4628 0.34168C15.6816 0.122887 15.9783 -2.89605e-05 16.2877 -2.89605e-05C19.3809 0.0033679 22.3464 1.23362 24.5336 3.42081C26.7208 5.608 27.951 8.57349 27.9544 11.6666C27.9544 11.9761 27.8315 12.2728 27.6127 12.4916C27.3939 12.7104 27.0972 12.8333 26.7877 12.8333C26.4783 12.8333 26.1816 12.7104 25.9628 12.4916C25.744 12.2728 25.6211 11.9761 25.6211 11.6666C25.6183 9.19214 24.6341 6.81978 22.8843 5.07004C21.1346 3.32031 18.7622 2.33608 16.2877 2.3333C15.9783 2.3333 15.6816 2.21039 15.4628 1.9916C15.244 1.7728 15.1211 1.47606 15.1211 1.16664ZM16.2877 6.99997C17.5254 6.99997 18.7124 7.49164 19.5876 8.36681C20.4627 9.24198 20.9544 10.429 20.9544 11.6666C20.9544 11.9761 21.0773 12.2728 21.2961 12.4916C21.5149 12.7104 21.8117 12.8333 22.1211 12.8333C22.4305 12.8333 22.7272 12.7104 22.946 12.4916C23.1648 12.2728 23.2877 11.9761 23.2877 11.6666C23.2859 9.81069 22.5478 8.03129 21.2354 6.71894C19.9231 5.40658 18.1437 4.66849 16.2877 4.66664C15.9783 4.66664 15.6816 4.78956 15.4628 5.00835C15.244 5.22714 15.1211 5.52389 15.1211 5.83331C15.1211 6.14272 15.244 6.43947 15.4628 6.65826C15.6816 6.87706 15.9783 6.99997 16.2877 6.99997ZM26.8962 19.5288C27.5723 20.2068 27.952 21.1252 27.952 22.0826C27.952 23.0401 27.5723 23.9585 26.8962 24.6365L25.8346 25.8603C16.2796 35.0081 -6.97209 11.7623 2.03458 2.17697L3.37624 1.0103C4.05497 0.353095 4.96516 -0.0104717 5.9099 -0.00173831C6.85463 0.00699508 7.75795 0.387326 8.42441 1.05697C8.46058 1.09314 10.6224 3.90131 10.6224 3.90131C11.2639 4.5752 11.621 5.47039 11.6194 6.40078C11.6179 7.33116 11.2579 8.22517 10.6142 8.89697L9.26324 10.5956C10.0109 12.4123 11.1102 14.0633 12.4978 15.4538C13.8855 16.8442 15.5343 17.9468 17.3494 18.6981L19.0586 17.339C19.7305 16.6958 20.6243 16.3362 21.5544 16.3349C22.4845 16.3336 23.3794 16.6907 24.0531 17.332C24.0531 17.332 26.8601 19.4926 26.8962 19.5288ZM25.2909 21.2251C25.2909 21.2251 22.4991 19.0773 22.4629 19.0411C22.2226 18.8028 21.8978 18.6691 21.5593 18.6691C21.2209 18.6691 20.8961 18.8028 20.6557 19.0411C20.6242 19.0738 18.2711 20.9486 18.2711 20.9486C18.1125 21.0749 17.9238 21.1576 17.7235 21.1887C17.5232 21.2198 17.3183 21.1982 17.1289 21.126C14.7774 20.2505 12.6416 18.8798 10.8661 17.1069C9.0905 15.334 7.71671 13.2001 6.83774 10.85C6.75981 10.658 6.7344 10.4487 6.76413 10.2437C6.79386 10.0387 6.87766 9.84523 7.00691 9.68331C7.00691 9.68331 8.88174 7.32897 8.91324 7.29864C9.15156 7.05829 9.28527 6.73352 9.28527 6.39506C9.28527 6.05659 9.15156 5.73182 8.91324 5.49147C8.87708 5.45647 6.72924 2.6623 6.72924 2.6623C6.48529 2.44356 6.16691 2.32642 5.83937 2.33488C5.51182 2.34334 5.19991 2.47676 4.96758 2.7078L3.62591 3.87447C-2.95642 11.7891 17.1931 30.821 24.1289 24.2666L25.1917 23.0416C25.4408 22.8109 25.5904 22.4924 25.6089 22.1535C25.6274 21.8145 25.5134 21.4816 25.2909 21.2251Z" fill="white" fill-opacity="0.25"/>
</svg>
