<svg width="23" height="24" viewBox="0 0 23 24" fill="none" xmlns="http://www.w3.org/2000/svg">
<path d="M16.0005 3.5C16.0005 1.57 17.5705 0 19.5005 0C21.4305 0 23.0005 1.57 23.0005 3.5C23.0005 5.43 21.4305 7 19.5005 7C17.5705 7 16.0005 5.43 16.0005 3.5ZM20.8605 10.157C20.6715 9.35 19.8645 8.846 19.0575 9.04C18.2505 9.229 17.7505 10.037 17.9405 10.843L18.9435 15.106C19.0715 15.565 18.9825 16.026 18.6915 16.407C18.3995 16.79 17.9695 17.001 17.4835 17.001H4.51652C4.05252 17.001 3.62052 16.796 3.33152 16.438C3.04452 16.084 2.93752 15.626 3.02052 15.245L5.00352 7.877C5.64552 5.007 8.16252 3.002 11.1255 3.002C11.4955 3.002 11.8685 3.035 12.2355 3.101C13.0475 3.247 13.8305 2.705 13.9755 1.888C14.1215 1.073 13.5785 0.293 12.7625 0.148C12.2225 0.051 11.6715 0.002 11.1255 0.002C6.74852 0 3.02752 2.97 2.09252 7.158L0.109519 14.525C-0.190481 15.866 0.132519 17.249 0.996519 18.32C1.85752 19.387 3.14052 20 4.51652 20H5.91652C6.47952 22.293 8.53352 24 11.0005 24C13.4675 24 15.5215 22.293 16.0845 20H17.4845C18.9065 20 20.2155 19.354 21.0765 18.228C21.9405 17.099 22.2165 15.666 21.8485 14.359L20.8615 10.158L20.8605 10.157Z" fill="#384959"/>
</svg>
