<svg width="42" height="42" viewBox="0 0 42 42" fill="none" xmlns="http://www.w3.org/2000/svg">
<g clip-path="url(#clip0_68_198)">
<path d="M32.375 0H9.625C4.31725 0 0 4.31725 0 9.625V11.375C0 13.0393 0.6685 14.5512 1.75 15.6572V32.375C1.75 37.6828 6.06725 42 11.375 42H14.875C16.3258 42 17.5 40.8257 17.5 39.375C17.5 37.9243 16.3258 36.75 14.875 36.75H11.375C8.9635 36.75 7 34.7865 7 32.375V17.5H35.875C39.2525 17.5 42 14.7525 42 11.375V9.625C42 4.31725 37.6828 0 32.375 0ZM36.75 11.375C36.75 11.858 36.358 12.25 35.875 12.25H6.125C5.642 12.25 5.25 11.858 5.25 11.375V9.625C5.25 7.2135 7.2135 5.25 9.625 5.25H32.375C34.7865 5.25 36.75 7.2135 36.75 9.625V11.375ZM31.5 21C25.7005 21 21 25.7005 21 31.5C21 37.2995 25.7005 42 31.5 42C37.2995 42 42 37.2995 42 31.5C42 25.7005 37.2995 21 31.5 21ZM37.9453 30.996L33.215 35.5705C32.424 36.351 31.374 36.7448 30.3223 36.7448C29.2705 36.7448 28.217 36.351 27.412 35.5653L25.0425 33.2342C24.3513 32.557 24.3425 31.4492 25.018 30.7598C25.6935 30.0685 26.8013 30.058 27.4925 30.7352L29.862 33.0645C30.114 33.313 30.527 33.3078 30.7755 33.061L35.5233 28.469C36.218 27.8022 37.3275 27.8215 37.9977 28.5198C38.6662 29.2163 38.6435 30.324 37.947 30.9943L37.9453 30.996Z" fill="#36BBA7" fill-opacity="0.15"/>
</g>
<defs>
<clipPath id="clip0_68_198">
<rect width="42" height="42" fill="white"/>
</clipPath>
</defs>
</svg>
