<svg width="24" height="24" viewBox="0 0 24 24" fill="none" xmlns="http://www.w3.org/2000/svg">
<path d="M22.9651 11C22.6999 11 22.4456 10.8946 22.258 10.7071C22.0705 10.5196 21.9651 10.2652 21.9651 9.99999C21.963 7.87891 21.1195 5.84531 19.6197 4.34547C18.1198 2.84564 16.0862 2.00211 13.9651 1.99999C13.6999 1.99999 13.4456 1.89463 13.258 1.7071C13.0705 1.51956 12.9651 1.26521 12.9651 0.99999C12.9651 0.734773 13.0705 0.480419 13.258 0.292883C13.4456 0.105347 13.6999 -1.03539e-05 13.9651 -1.03539e-05C16.6164 0.00290124 19.1583 1.0574 21.033 2.93214C22.9077 4.80687 23.9622 7.34872 23.9651 9.99999C23.9651 10.2652 23.8598 10.5196 23.6722 10.7071C23.4847 10.8946 23.2304 11 22.9651 11ZM19.9651 9.99999C19.9651 8.40869 19.333 6.88257 18.2078 5.75735C17.0826 4.63213 15.5564 3.99999 13.9651 3.99999C13.6999 3.99999 13.4456 4.10535 13.258 4.29288C13.0705 4.48042 12.9651 4.73477 12.9651 4.99999C12.9651 5.26521 13.0705 5.51956 13.258 5.7071C13.4456 5.89463 13.6999 5.99999 13.9651 5.99999C15.026 5.99999 16.0434 6.42142 16.7936 7.17156C17.5437 7.92171 17.9651 8.93912 17.9651 9.99999C17.9651 10.2652 18.0705 10.5196 18.258 10.7071C18.4456 10.8946 18.6999 11 18.9651 11C19.2304 11 19.4847 10.8946 19.6722 10.7071C19.8598 10.5196 19.9651 10.2652 19.9651 9.99999ZM22.1481 22.164L23.0581 21.115C23.6373 20.5339 23.9626 19.7469 23.9626 18.9265C23.9626 18.1061 23.6373 17.3191 23.0581 16.738C23.0271 16.707 20.6211 14.856 20.6211 14.856C20.0437 14.3063 19.2767 14.0003 18.4794 14.0014C17.6822 14.0025 16.916 14.3107 16.3401 14.862L14.4341 16.468C12.8783 15.8241 11.465 14.8792 10.2754 13.6875C9.08582 12.4958 8.14335 11.0809 7.50214 9.52399L9.10214 7.62399C9.65385 7.04816 9.96244 6.28187 9.96374 5.48439C9.96504 4.68692 9.65897 3.91962 9.10914 3.34199C9.10914 3.34199 7.25614 0.93899 7.22514 0.90799C6.65459 0.333738 5.88102 0.00701166 5.07157 -0.00159557C4.26211 -0.0102028 3.48177 0.3 2.89914 0.86199L1.74914 1.86199C-5.04486 9.74399 9.58514 24.261 17.7271 24C18.5493 24.0048 19.3641 23.8447 20.1234 23.5294C20.8828 23.2141 21.5712 22.7498 22.1481 22.164Z" fill="#384959" fill-opacity="0.72"/>
</svg>
