<svg width="42" height="43" viewBox="0 0 42 43" fill="none" xmlns="http://www.w3.org/2000/svg">
<path d="M30.6106 42.9952C16.3318 43.4054 -8.94575 17.5331 3.20939 3.47186C3.2532 3.42887 5.12281 1.7628 5.12281 1.7628C6.29621 0.653784 7.83908 0.0439607 9.43699 0.0576081C11.0349 0.0712556 12.5676 0.707347 13.7227 1.83625L17.4935 5.98887C18.6042 7.17567 19.2185 8.75856 19.2057 10.4011C19.1929 12.0436 18.5542 13.6164 17.4251 14.785L16.7453 15.4908C18.77 20.075 22.3523 23.7527 26.8275 25.8419L27.5477 25.1253C28.7157 23.9879 30.267 23.3535 31.8801 23.3535C33.4931 23.3535 35.0444 23.9879 36.2124 25.1253L40.1321 28.8426C41.2932 30.0022 41.9596 31.5835 41.9865 33.2427C42.0134 34.9019 41.3986 36.5049 40.2758 37.7032C40.2758 37.7032 38.6463 39.6129 38.6042 39.6577C37.5542 40.7272 36.3069 41.573 34.9347 42.1459C33.5625 42.7188 32.0927 43.0075 30.6106 42.9952ZM6.86802 7.34501C-1.64601 18.1261 25.6062 44.38 34.8247 35.9189C34.8247 35.9189 36.4437 34.0217 36.4875 33.9787C36.6518 33.8108 36.744 33.583 36.744 33.3454C36.744 33.1079 36.6518 32.8801 36.4875 32.7122L32.5661 28.9967C32.0404 28.5488 31.7443 28.5434 31.2571 28.925L29.2666 30.9279C28.9076 31.289 28.4546 31.537 27.9616 31.6425C27.4686 31.7479 26.9564 31.7063 26.4859 31.5226C22.9895 30.1924 19.8138 28.1092 17.1739 25.4142C14.5341 22.7193 12.4918 19.4755 11.1855 15.9028C10.9954 15.4179 10.9476 14.8868 11.0482 14.3745C11.1487 13.8622 11.3931 13.391 11.7515 13.0186L13.6929 11.0014C13.7813 10.9211 13.8524 10.8228 13.9015 10.7128C13.9507 10.6029 13.9768 10.4836 13.9783 10.3627C13.9798 10.2418 13.9566 10.1219 13.9101 10.0107C13.8637 9.89952 13.7951 9.79945 13.7087 9.71691L9.9344 5.56429C9.7674 5.4216 9.55338 5.34955 9.33612 5.36287C9.11887 5.37619 8.9148 5.47388 8.76568 5.63595C8.72362 5.68074 6.86802 7.34501 6.86802 7.34501ZM42 17.0189C41.9949 12.5068 40.2395 8.18103 37.1188 4.99049C33.9982 1.79995 29.7672 0.00521548 25.3539 0C24.6569 0 23.9883 0.283115 23.4954 0.787062C23.0025 1.29101 22.7256 1.97451 22.7256 2.6872C22.7256 3.39989 23.0025 4.08339 23.4954 4.58734C23.9883 5.09128 24.6569 5.3744 25.3539 5.3744C28.3734 5.37819 31.2682 6.60624 33.4034 8.78919C35.5385 10.9721 36.7396 13.9318 36.7433 17.0189C36.7433 17.7316 37.0203 18.4151 37.5132 18.9191C38.0061 19.423 38.6746 19.7061 39.3717 19.7061C40.0687 19.7061 40.7373 19.423 41.2302 18.9191C41.7231 18.4151 42 17.7316 42 17.0189ZM33.2389 17.0189C33.2366 14.8816 32.4051 12.8325 30.9269 11.3211C29.4487 9.80981 27.4444 8.9597 25.3539 8.95733C24.6569 8.95733 23.9883 9.24044 23.4954 9.74439C23.0025 10.2483 22.7256 10.9318 22.7256 11.6445C22.7256 12.3572 23.0025 13.0407 23.4954 13.5447C23.9883 14.0486 24.6569 14.3317 25.3539 14.3317C26.051 14.3317 26.7195 14.6148 27.2124 15.1188C27.7053 15.6227 27.9823 16.3062 27.9823 17.0189C27.9823 17.7316 28.2592 18.4151 28.7521 18.9191C29.245 19.423 29.9135 19.7061 30.6106 19.7061C31.3077 19.7061 31.9762 19.423 32.4691 18.9191C32.962 18.4151 33.2389 17.7316 33.2389 17.0189Z" fill="#7C86FF" fill-opacity="0.12"/>
</svg>
