<svg width="48" height="48" viewBox="0 0 48 48" fill="none" xmlns="http://www.w3.org/2000/svg">
<path d="M45.9303 22C45.3998 22 44.8911 21.7893 44.5161 21.4142C44.141 21.0391 43.9303 20.5304 43.9303 20C43.926 15.7578 42.239 11.6906 39.2393 8.69097C36.2396 5.69131 32.1724 4.00424 27.9303 4C27.3998 4 26.8911 3.78929 26.5161 3.41422C26.141 3.03914 25.9303 2.53044 25.9303 2C25.9303 1.46957 26.141 0.960862 26.5161 0.585789C26.8911 0.210716 27.3998 2.18046e-06 27.9303 2.18046e-06C33.2328 0.00582537 38.3165 2.11483 42.066 5.8643C45.8154 9.61377 47.9245 14.6975 47.9303 20C47.9303 20.5304 47.7196 21.0391 47.3445 21.4142C46.9694 21.7893 46.4607 22 45.9303 22ZM39.9303 20C39.9303 16.8174 38.666 13.7652 36.4156 11.5147C34.1651 9.26429 31.1129 8 27.9303 8C27.3998 8 26.8911 8.21072 26.5161 8.58579C26.141 8.96086 25.9303 9.46957 25.9303 10C25.9303 10.5304 26.141 11.0391 26.5161 11.4142C26.8911 11.7893 27.3998 12 27.9303 12C30.052 12 32.0868 12.8429 33.5871 14.3431C35.0874 15.8434 35.9303 17.8783 35.9303 20C35.9303 20.5304 36.141 21.0391 36.5161 21.4142C36.8911 21.7893 37.3998 22 37.9303 22C38.4607 22 38.9694 21.7893 39.3445 21.4142C39.7196 21.0391 39.9303 20.5304 39.9303 20ZM44.2963 44.328L46.1163 42.23C47.2747 41.0679 47.9252 39.4939 47.9252 37.853C47.9252 36.2121 47.2747 34.6382 46.1163 33.476C46.0543 33.414 41.2423 29.712 41.2423 29.712C40.0874 28.6127 38.5533 28.0005 36.9589 28.0028C35.3644 28.005 33.8321 28.6214 32.6803 29.724L28.8683 32.936C25.7566 31.6482 22.93 29.7584 20.5508 27.375C18.1716 24.9917 16.2867 22.1619 15.0043 19.048L18.2043 15.248C19.3077 14.0963 19.9249 12.5638 19.9275 10.9688C19.9301 9.37386 19.3179 7.83926 18.2183 6.684C18.2183 6.684 14.5123 1.878 14.4503 1.816C13.3092 0.667499 11.762 0.0140462 10.1431 -0.00316825C8.52423 -0.0203827 6.96354 0.600023 5.79828 1.724L3.49828 3.724C-10.0897 19.488 19.1703 48.522 35.4543 48C37.0986 48.0095 38.7283 47.6895 40.2469 47.0588C41.7655 46.4282 43.1424 45.4996 44.2963 44.328Z" fill="#EF5E5E" fill-opacity="0.15"/>
</svg>
