<svg width="24" height="24" viewBox="0 0 24 24" fill="none" xmlns="http://www.w3.org/2000/svg">
<path d="M14.877 6.02102C14.948 6.02102 15.031 6.10102 15.032 6.19702C15.033 6.31602 14.925 6.45502 14.867 6.47902C14.32 6.49002 13.882 6.93902 13.887 7.48802C13.892 8.03702 14.339 8.47902 14.887 8.47902H14.896C15.433 8.47402 15.95 8.24502 16.353 7.83402C16.792 7.38602 17.04 6.78102 17.033 6.16902C17.014 4.99602 16.056 4.03202 14.906 3.97702C14.91 3.89302 14.95 3.82202 14.98 3.78602C15.492 3.73902 15.891 3.30702 15.888 2.78502C15.885 2.23302 15.428 1.77702 14.882 1.79102C13.853 1.79702 12.967 2.73202 12.909 3.87902C12.882 4.44202 13.086 4.99802 13.469 5.40202C13.842 5.79702 14.343 6.01702 14.879 6.02202L14.877 6.02102Z" fill="#EF5E5E"/>
<path d="M8.938 5.22997C9.009 5.22997 9.092 5.30897 9.093 5.40597C9.094 5.52497 8.986 5.66397 8.928 5.68797C8.381 5.69898 7.943 6.14797 7.948 6.69697C7.953 7.24597 8.4 7.68797 8.948 7.68797H8.957C9.494 7.68297 10.011 7.45397 10.413 7.04397C10.852 6.59597 11.1 5.98997 11.093 5.37897C11.075 4.20598 10.117 3.24198 8.967 3.18598C8.971 3.10298 9.011 3.03198 9.04 2.99598C9.551 2.94998 9.951 2.51797 9.948 1.99597C9.945 1.44397 9.449 0.994975 8.943 1.00097C7.912 1.00597 7.027 1.94098 6.969 3.08798C6.942 3.65198 7.145 4.20697 7.528 4.61197C7.902 5.00698 8.403 5.22597 8.938 5.22997Z" fill="#EF5E5E"/>
<path d="M22.128 10.833C21.942 10.781 17.527 9.56897 12 9.56897C6.473 9.56897 2.057 10.781 1.872 10.833C1.44 10.954 1.141 11.348 1.141 11.796V15.875C1.141 19.315 4.19 23 8.729 23H15.273C19.96 23 22.861 19.302 22.861 15.875V11.796C22.861 11.347 22.562 10.953 22.13 10.833H22.128Z" fill="#EF5E5E"/>
</svg>
