<svg width="24" height="24" viewBox="0 0 24 24" fill="none" xmlns="http://www.w3.org/2000/svg">
<g clip-path="url(#clip0_40_385)">
<path d="M15 0H5C2.243 0 0 2.243 0 5V15C0 17.757 2.243 20 5 20H15C17.757 20 20 17.757 20 15V5C20 2.243 17.757 0 15 0ZM14 11H11V14C11 14.552 10.552 15 10 15C9.448 15 9 14.552 9 14V11H6C5.448 11 5 10.552 5 10C5 9.448 5.448 9 6 9H9V6C9 5.448 9.448 5 10 5C10.552 5 11 5.448 11 6V9H14C14.552 9 15 9.448 15 10C15 10.552 14.552 11 14 11ZM19 24H7C6.448 24 6 23.552 6 23C6 22.448 6.448 22 7 22H19C20.654 22 22 20.654 22 19V7C22 6.448 22.448 6 23 6C23.552 6 24 6.448 24 7V19C24 21.757 21.757 24 19 24Z" fill="#384959"/>
</g>
<defs>
<clipPath id="clip0_40_385">
<rect width="24" height="24" fill="white"/>
</clipPath>
</defs>
</svg>
