<svg width="24" height="24" viewBox="0 0 24 24" fill="none" xmlns="http://www.w3.org/2000/svg">
<path d="M0 11V6C0 2.692 2.692 0 6 0C9.308 0 12 2.692 12 6V11H0ZM12.258 21.328C11.471 20.253 11 18.932 11 17.5C11 13.916 13.916 11 17.5 11C18.932 11 20.252 11.471 21.328 12.258L12.259 21.327L12.258 21.328ZM13.672 22.742C14.747 23.529 16.068 24 17.5 24C21.084 24 24 21.084 24 17.5C24 16.068 23.529 14.748 22.742 13.672L13.673 22.741L13.672 22.742ZM9 17.5C9 15.845 9.48 14.306 10.298 13H0V18C0 21.308 2.692 24 6 24C7.719 24 9.268 23.269 10.363 22.106C9.504 20.778 9 19.199 9 17.5Z" fill="#26B67E"/>
</svg>
