<svg width="24" height="24" viewBox="0 0 24 24" fill="none" xmlns="http://www.w3.org/2000/svg">
<path d="M16.499 22.486C15.207 22.826 13.719 23 12 23C10.281 23 8.793 22.826 7.501 22.486C7.504 19.133 8.641 18 12 18C15.359 18 16.496 19.134 16.499 22.486ZM12 8C10.411 8 10 8.411 10 10C10 11.589 10.411 12 12 12C13.589 12 14 11.589 14 10C14 8.411 13.589 8 12 8ZM23 12C23 17.028 21.59 20.165 18.478 21.747C18.258 17.782 16.235 16 12 16C7.765 16 5.742 17.782 5.522 21.747C2.411 20.165 1 17.027 1 12C1 4.29 4.29 1 12 1C19.71 1 23 4.29 23 12ZM16 10C16 7.309 14.691 6 12 6C9.309 6 8 7.309 8 10C8 12.691 9.309 14 12 14C14.691 14 16 12.691 16 10Z" fill="#384959"/>
</svg>
