<svg width="23" height="24" viewBox="0 0 23 24" fill="none" xmlns="http://www.w3.org/2000/svg">
<path d="M22.1951 3.699L20.8731 5.021L17.8091 1.957L19.0431 0.723001C19.8441 -0.0779989 21.1511 -0.231999 22.0281 0.486001C23.0371 1.311 23.0921 2.802 22.1941 3.7L22.1951 3.699ZM16.3951 3.371L11.0991 8.667C10.2861 9.48 9.83008 10.582 9.83008 11.731V12.5C9.83008 12.776 10.0541 13 10.3301 13H11.0991C12.2481 13 13.3501 12.543 14.1631 11.731L19.4591 6.435L16.3951 3.371ZM20.1021 13.885L19.6511 13.625C19.7531 13.081 19.8041 12.537 19.8041 12C19.8041 11.463 19.7531 10.919 19.6511 10.375L19.3611 9.36L15.5771 13.144C14.3811 14.34 12.7911 14.999 11.0991 14.999H10.3291C8.95008 14.999 7.82908 13.878 7.82908 12.499V11.729C7.82908 10.038 8.48808 8.448 9.68408 7.251L13.8031 3.132V2.998C13.8031 1.344 12.4571 -0.0019989 10.8031 -0.0019989C9.14908 -0.0019989 7.80308 1.344 7.80308 2.998V3.52C6.75608 3.89 5.78708 4.449 4.94608 5.169L4.49608 4.91C3.80308 4.512 2.99508 4.406 2.21908 4.615C1.44608 4.823 0.800083 5.321 0.401083 6.015C0.00108275 6.709 -0.103917 7.518 0.105083 8.292C0.313083 9.065 0.811083 9.711 1.50608 10.111L1.95708 10.37C1.85508 10.914 1.80408 11.458 1.80408 11.996C1.80408 12.534 1.85508 13.078 1.95708 13.622L1.50608 13.881C0.811083 14.281 0.314083 14.927 0.105083 15.7C-0.103917 16.474 0.00108284 17.283 0.400083 17.976C0.799083 18.671 1.44508 19.169 2.21908 19.377C2.99508 19.587 3.80308 19.481 4.49608 19.082L4.94608 18.823C5.78708 19.544 6.75608 20.102 7.80308 20.472V20.994C7.80308 22.648 9.14908 23.994 10.8031 23.994C12.4571 23.994 13.8031 22.648 13.8031 20.994V20.472C14.8501 20.102 15.8191 19.543 16.6601 18.823L17.1101 19.082C17.8051 19.481 18.6131 19.587 19.3871 19.377C20.1601 19.169 20.8061 18.671 21.2061 17.976C22.0311 16.542 21.5351 14.705 20.1011 13.88L20.1021 13.885Z" fill="#384959"/>
</svg>
