<svg width="24" height="18" viewBox="0 0 24 18" fill="none" xmlns="http://www.w3.org/2000/svg">
<path d="M22.925 2.695C22.262 2.363 21.482 2.433 20.888 2.878L18.944 4.76C18.58 2.077 16.28 0 13.5 0H5.5C2.467 0 0 2.468 0 5.5V12.5C0 15.532 2.467 18 5.5 18H13.5C16.272 18 18.567 15.935 18.941 13.264L20.888 15.11C21.234 15.368 21.641 15.501 22.053 15.501C22.388 15.501 22.725 15.414 23.033 15.236C23.663 14.872 24 14.148 24 13.42V4.434C24 3.693 23.588 3.026 22.925 2.695ZM16 12.5C16 13.879 14.879 15 13.5 15H5.5C4.122 15 3 13.879 3 12.5V5.5C3 4.121 4.122 3 5.5 3H13.5C14.879 3 16 4.121 16 5.5V12.5Z" fill="#384959" fill-opacity="0.72"/>
</svg>
