<svg width="24" height="24" viewBox="0 0 24 24" fill="none" xmlns="http://www.w3.org/2000/svg">
<g clip-path="url(#clip0_94_679)">
<path d="M7 2.5C7 1.119 8.119 0 9.5 0C10.881 0 12 1.119 12 2.5C12 3.881 10.881 5 9.5 5C8.119 5 7 3.881 7 2.5ZM13.241 10.62L11.883 7.801C11.388 6.908 10.531 6.295 9.555 6.085C9.206 5.955 8.756 6.014 8.386 6C7.636 6 6.896 6.12 6.184 6.357L2.998 7.419C2.256 7.667 1.665 8.257 1.418 9L0.575999 11.526C0.313999 12.312 0.738999 13.161 1.525 13.423C2.311 13.687 3.161 13.261 3.422 12.474L4.185 10.185L5.788 9.651L5.032 12.883C4.728 14.181 5.176 15.517 6.2 16.369L9 18.702V22.499C9 23.328 9.671 23.999 10.5 23.999C11.329 23.999 12 23.328 12 22.499V18.467C12 17.723 11.672 17.023 11.1 16.547L9.467 15.187L10.332 11.492L10.648 12.15C10.721 12.302 10.82 12.441 10.94 12.561L12.44 14.061C13.026 14.647 13.975 14.647 14.561 14.061C15.147 13.476 15.147 12.525 14.561 11.94L13.241 10.62ZM5.901 18.055C5.106 17.836 4.276 18.301 4.054 19.099L3.221 22.099C2.999 22.897 3.467 23.724 4.265 23.946C5.042 24.168 5.892 23.707 6.112 22.902L6.945 19.902C7.167 19.104 6.699 18.277 5.901 18.055ZM23.172 11.278L20.432 8.771C19.869 8.255 18.961 8.655 18.961 9.419V10.501H17.499C16.671 10.501 15.999 11.172 15.999 12.001C15.999 12.83 16.671 13.501 17.499 13.501H18.961V14.669C18.961 15.424 19.858 15.82 20.416 15.31L23.172 12.788C23.621 12.385 23.621 11.681 23.172 11.278Z" fill="#FF8921"/>
</g>
<defs>
<clipPath id="clip0_94_679">
<rect width="24" height="24" fill="white"/>
</clipPath>
</defs>
</svg>
