<svg xmlns="http://www.w3.org/2000/svg" viewBox="0 0 872 150" width="872" height="150">
  <title>Med.sphere</title>
  <g transform="scale(0.2472,0.2419)" >
    <g transform="translate(0.000000,620.000000) scale(0.100000,-0.100000)" fill="#3d61bd" stroke="none">

<path d="M12898 6170 c-306 -5 -339 -7 -355 -23 -17 -17 -18 -65 -21 -810 -2
-465 -6 -795 -12 -801 -6 -6 -45 25 -100 78 -50 47 -108 95 -128 106 -20 12
-57 32 -82 46 -52 29 -213 94 -234 94 -7 0 -30 7 -50 15 -82 34 -554 35 -636
1 -19 -8 -62 -20 -95 -27 -33 -6 -83 -22 -111 -35 -28 -13 -56 -24 -63 -24
-39 0 -257 -129 -334 -197 -20 -18 -41 -33 -45 -33 -5 0 -43 -35 -86 -77 -128
-129 -249 -320 -367 -581 -10 -23 -19 -56 -19 -74 0 -17 -9 -65 -19 -107 -35
-137 -53 -376 -41 -541 15 -207 27 -307 44 -370 9 -30 16 -71 16 -90 0 -19 9
-55 20 -79 11 -24 20 -48 20 -53 0 -5 26 -62 57 -126 69 -143 213 -359 283
-427 29 -27 77 -76 107 -107 30 -31 71 -65 91 -75 21 -10 63 -35 95 -56 31
-20 62 -37 68 -37 6 0 23 -8 37 -19 48 -33 166 -87 242 -110 173 -53 331 -70
664 -70 210 -1 281 2 327 14 33 9 92 22 132 29 134 26 226 62 377 149 25 15
64 36 87 47 141 69 413 340 464 463 7 17 33 61 56 97 23 35 57 101 74 145 17
44 39 100 50 125 23 54 46 163 60 285 6 50 17 133 25 185 12 80 14 335 14
1554 0 969 -3 1464 -10 1476 -15 29 -102 50 -189 48 -42 -1 -228 -5 -413 -8z
m-908 -2180 c143 -47 245 -114 303 -200 10 -14 33 -45 52 -70 19 -25 47 -76
61 -115 15 -38 31 -75 36 -82 18 -23 48 -207 48 -293 0 -117 -27 -274 -56
-330 -13 -25 -24 -51 -24 -58 0 -32 -91 -183 -136 -227 -101 -96 -186 -142
-334 -181 -80 -20 -262 -14 -331 11 -24 9 -64 23 -89 31 -77 26 -179 102 -237
179 -57 74 -123 193 -123 219 0 8 -9 32 -20 53 -15 31 -20 67 -26 193 -6 157
7 372 25 394 5 6 15 34 22 61 6 28 20 59 29 70 10 11 21 27 26 36 5 9 22 32
37 51 15 19 42 56 60 83 18 27 39 52 47 56 8 4 44 24 80 45 36 20 108 52 160
70 83 29 108 33 198 34 88 0 116 -4 192 -30z"/>
<path d="M23156 6173 c-376 -4 -368 -2 -381 -69 -3 -19 -6 -1010 -7 -2202 0
-1703 2 -2177 12 -2215 21 -82 1 -79 484 -75 l426 3 30 30 30 30 3 945 4 945
30 71 c17 39 43 91 58 115 38 60 114 142 146 155 14 7 44 23 67 38 78 49 141
67 265 77 l118 9 84 -35 c120 -50 175 -81 218 -123 60 -58 131 -186 166 -297
l31 -99 0 -896 c0 -832 1 -897 18 -930 l17 -35 430 -3 c302 -2 438 1 457 9 15
6 35 23 45 38 17 24 18 77 21 871 3 1004 -4 1226 -48 1375 -40 139 -59 195
-77 230 -8 17 -38 75 -66 129 -56 110 -162 246 -248 316 -30 24 -75 63 -100
86 -66 60 -225 134 -386 179 -125 35 -207 47 -368 52 -175 5 -170 6 -420 -42
-63 -13 -144 -41 -232 -81 -17 -8 -35 -14 -41 -14 -5 0 -21 -9 -35 -20 -14
-11 -39 -23 -56 -26 -17 -4 -36 -13 -42 -20 -6 -8 -19 -14 -29 -14 -27 0 -29
64 -29 776 -1 379 -5 652 -10 667 -20 51 -66 55 -585 50z"/>
<path d="M1346 6053 c-2 -2 -66 -7 -143 -12 -104 -6 -146 -12 -164 -24 -13
-10 -33 -17 -45 -17 -27 0 -148 -45 -194 -72 -80 -47 -107 -62 -145 -81 -91
-45 -260 -200 -349 -322 -9 -11 -26 -33 -39 -50 -13 -16 -34 -48 -45 -71 -11
-22 -28 -46 -36 -53 -9 -8 -16 -23 -16 -35 0 -12 -7 -31 -15 -42 -22 -32 -75
-184 -75 -215 0 -15 -7 -57 -15 -94 -14 -57 -16 -272 -18 -1673 -2 -1813 -10
-1649 77 -1671 30 -7 186 -11 469 -11 411 0 425 1 450 20 18 14 28 34 32 63 3
23 6 742 8 1597 l2 1555 47 76 c50 80 113 145 169 176 25 13 56 18 119 18 74
0 92 -4 140 -29 77 -40 141 -111 170 -188 l24 -63 6 -1105 6 -1105 27 -78 c15
-43 27 -86 27 -96 0 -10 12 -40 26 -67 14 -27 35 -73 46 -102 25 -66 121 -211
190 -287 132 -145 212 -203 433 -312 103 -51 137 -64 240 -91 98 -26 107 -27
390 -26 245 1 297 3 334 17 24 9 55 17 70 17 15 0 63 15 107 34 262 111 484
279 606 461 15 22 41 60 59 85 41 58 83 141 104 210 10 30 24 71 33 90 8 19
18 64 23 100 4 36 12 92 18 125 7 39 11 390 12 1015 0 525 4 1007 8 1070 7
106 10 118 38 160 40 58 67 83 135 124 47 28 69 34 142 40 85 7 88 7 143 -25
82 -47 131 -95 162 -159 l26 -55 5 -1590 c5 -1573 5 -1590 25 -1624 14 -23 31
-38 53 -43 18 -5 230 -7 473 -6 l441 3 23 27 c14 16 27 51 34 91 14 80 15
2999 1 3097 -5 36 -20 124 -33 195 -24 130 -28 139 -135 365 -38 78 -127 189
-250 308 -83 81 -121 110 -179 138 -40 19 -94 50 -119 69 -25 19 -50 35 -56
35 -5 0 -37 11 -71 24 -123 48 -201 67 -311 77 -224 21 -492 7 -615 -31 -151
-47 -197 -63 -211 -76 -8 -7 -53 -32 -100 -55 -178 -89 -258 -159 -432 -379
-85 -109 -128 -188 -128 -240 0 -9 -13 -37 -30 -61 -16 -24 -30 -56 -30 -70 0
-14 -10 -61 -22 -105 -22 -79 -22 -83 -28 -1174 l-5 -1095 -30 -59 c-39 -78
-131 -161 -205 -187 -65 -22 -145 -24 -180 -4 -14 8 -33 14 -44 15 -22 0 -56
28 -122 101 l-51 56 -12 104 c-8 73 -11 397 -11 1074 0 565 -4 989 -10 1015
-5 25 -9 62 -10 82 0 70 -63 247 -146 414 -56 112 -132 214 -237 319 -59 59
-183 155 -199 155 -6 0 -45 21 -87 46 -42 25 -83 49 -91 54 -33 18 -152 60
-169 60 -10 0 -38 7 -62 16 -63 22 -437 53 -453 37z"/>
<path d="M27785 4899 c-95 -8 -116 -13 -260 -54 -49 -14 -112 -30 -140 -36
-85 -19 -323 -141 -387 -198 -31 -28 -61 -51 -67 -51 -10 0 -145 -137 -238
-240 -70 -78 -227 -365 -266 -485 -9 -27 -21 -80 -27 -117 -6 -37 -15 -80 -21
-95 -6 -16 -16 -111 -21 -213 -12 -208 2 -502 26 -567 8 -21 16 -56 19 -78 8
-76 128 -317 229 -462 52 -75 196 -225 265 -276 25 -17 64 -49 89 -69 59 -50
163 -109 249 -143 39 -15 79 -33 90 -40 11 -7 40 -17 65 -23 25 -5 68 -19 95
-31 96 -39 191 -62 315 -77 69 -7 145 -18 170 -24 25 -5 267 -9 548 -10 441 0
508 2 538 16 18 9 39 23 46 31 18 23 19 720 1 749 -29 47 -48 48 -558 49 -511
1 -674 11 -753 46 -23 10 -52 19 -63 19 -11 0 -30 11 -43 25 -13 14 -30 25
-37 25 -15 0 -179 157 -179 171 0 4 -14 31 -32 59 -57 92 -141 84 985 90 540
3 988 9 995 13 19 13 38 57 52 125 18 88 8 520 -14 577 -8 22 -15 63 -16 90 0
51 -7 81 -34 170 -36 115 -72 213 -94 250 -13 22 -27 45 -30 51 -4 7 -21 32
-39 57 -17 25 -34 56 -38 69 -10 29 -31 58 -128 169 -43 49 -88 94 -100 100
-12 6 -38 26 -57 44 -60 56 -176 130 -240 154 -203 76 -195 73 -399 120 -105
24 -338 34 -496 20z m414 -862 c75 -38 172 -117 204 -165 15 -24 26 -47 57
-117 38 -89 59 -190 42 -207 -11 -11 -1093 -15 -1111 -4 -16 10 -13 69 4 92 8
10 15 26 15 34 0 12 57 131 94 197 20 35 47 63 90 92 21 14 57 39 80 54 95 65
106 68 286 65 l165 -3 74 -38z"/>
<path d="M8055 4894 c-16 -3 -76 -16 -131 -30 -56 -13 -109 -24 -119 -24 -9 0
-28 -9 -42 -20 -14 -11 -37 -20 -50 -20 -14 0 -37 -7 -51 -15 -15 -8 -50 -23
-79 -34 -63 -23 -183 -89 -183 -100 0 -10 -122 -91 -136 -91 -12 0 -132 -123
-200 -205 -57 -68 -144 -196 -144 -212 0 -5 -13 -28 -28 -49 -55 -76 -132
-262 -132 -317 0 -14 -7 -41 -15 -60 -8 -20 -17 -62 -20 -94 -4 -32 -13 -99
-21 -149 -38 -223 12 -723 85 -844 5 -8 27 -54 50 -102 23 -48 57 -107 76
-132 18 -24 40 -58 49 -74 44 -85 223 -264 348 -348 53 -36 102 -71 108 -79 7
-8 20 -15 30 -15 10 0 23 -7 30 -15 6 -8 22 -17 33 -20 12 -4 42 -16 67 -27
141 -65 272 -116 330 -127 25 -5 72 -16 105 -25 33 -9 107 -21 165 -26 58 -6
141 -15 185 -20 44 -5 292 -9 550 -9 408 -1 473 1 492 14 45 31 53 95 52 399
-1 317 -6 377 -36 408 -21 20 -30 21 -295 19 -265 -1 -700 13 -863 28 -86 8
-201 36 -225 56 -8 7 -28 19 -45 28 -77 39 -172 146 -214 243 -28 62 -27 70
12 78 17 4 462 7 989 6 l956 -1 29 25 c24 21 29 33 34 98 3 40 12 116 19 169
11 77 11 114 1 190 -6 52 -16 144 -22 204 -5 61 -16 130 -24 154 -8 25 -15 61
-15 80 -1 20 -8 54 -16 76 -8 22 -21 60 -28 85 -23 79 -94 216 -158 306 -19
28 -43 65 -52 82 -20 39 -180 199 -267 268 -58 46 -182 124 -196 124 -3 0 -29
11 -57 24 -64 29 -135 54 -206 71 -30 8 -82 21 -115 30 -47 13 -118 17 -320
20 -143 2 -273 1 -290 -1z m462 -840 c15 -11 44 -29 63 -39 52 -27 143 -104
159 -134 7 -14 20 -31 28 -38 30 -24 66 -144 67 -223 l1 -75 -35 -5 c-19 -3
-267 -3 -550 0 l-515 5 -3 43 c-6 86 90 275 180 352 66 57 172 121 218 131 19
4 108 7 197 6 146 -2 164 -4 190 -23z"/>
<path d="M20315 4893 c-27 -2 -63 -10 -80 -18 -16 -7 -65 -18 -108 -24 -43 -6
-95 -20 -117 -31 -22 -11 -48 -20 -58 -20 -53 0 -342 -148 -362 -185 -7 -12
-33 -32 -58 -43 -32 -15 -87 -62 -169 -144 -109 -110 -131 -139 -216 -280 -52
-87 -98 -170 -102 -185 -3 -16 -12 -35 -19 -43 -37 -42 -89 -280 -101 -457 -4
-50 -13 -115 -21 -145 -12 -45 -14 -278 -13 -1478 0 -784 4 -1447 8 -1473 14
-87 -14 -82 469 -85 439 -3 493 0 507 36 4 9 6 318 5 686 -1 681 5 906 23 906
6 0 24 -15 41 -33 55 -59 228 -187 252 -187 6 0 22 -8 35 -18 43 -33 248 -95
351 -107 32 -4 158 -6 280 -6 199 0 229 3 276 21 29 11 66 20 84 20 17 0 50 9
72 19 23 11 80 35 129 54 48 19 101 47 118 61 17 14 35 26 40 26 11 0 103 59
154 100 90 71 217 197 237 235 11 22 31 53 44 68 13 16 24 34 24 40 0 6 9 21
21 33 11 12 28 35 37 52 59 106 86 161 97 201 7 25 27 87 44 136 29 84 40 145
72 425 11 90 4 307 -11 345 -5 12 -13 72 -19 131 -12 123 -60 309 -105 409 -8
17 -21 48 -31 70 -9 21 -29 55 -44 75 -16 19 -50 73 -77 120 -27 47 -62 103
-79 125 -40 54 -226 235 -240 235 -11 0 -68 39 -165 113 -50 38 -246 127 -279
127 -12 0 -36 8 -54 17 -18 9 -75 24 -127 34 -52 9 -122 24 -155 33 -47 12
-113 15 -310 14 -137 -1 -272 -3 -300 -5z m410 -873 c86 -12 280 -103 326
-152 59 -64 148 -186 177 -245 65 -128 87 -379 53 -609 -11 -76 -62 -196 -123
-290 -72 -109 -228 -234 -313 -250 -22 -4 -54 -13 -72 -21 -45 -18 -304 -18
-341 1 -15 7 -45 17 -67 20 -68 13 -115 45 -219 150 -102 102 -115 122 -194
296 -37 82 -52 311 -32 480 9 76 42 172 83 245 6 11 20 38 30 60 11 22 28 46
39 53 10 7 27 30 37 50 23 44 64 84 111 107 19 10 42 23 50 30 14 11 178 69
225 78 38 9 160 7 230 -3z"/>
<path d="M33060 4891 c-231 -53 -277 -64 -286 -72 -6 -4 -35 -14 -65 -20 -30
-6 -61 -17 -70 -25 -8 -8 -20 -14 -25 -14 -27 0 -195 -96 -234 -134 -25 -24
-63 -53 -85 -64 -83 -41 -312 -306 -372 -429 -11 -21 -24 -47 -30 -58 -28 -55
-53 -111 -53 -119 0 -5 -13 -31 -30 -57 -29 -48 -54 -136 -71 -256 -5 -35 -14
-93 -19 -130 -26 -177 -34 -314 -22 -391 7 -42 19 -126 27 -187 22 -162 43
-244 75 -293 16 -24 43 -78 61 -120 17 -42 36 -83 41 -90 6 -7 18 -25 27 -41
35 -64 103 -151 187 -240 81 -86 116 -115 198 -165 17 -10 49 -35 71 -55 46
-42 260 -150 362 -183 37 -11 76 -28 85 -36 9 -7 45 -17 80 -22 35 -4 84 -15
109 -24 25 -8 97 -20 160 -26 63 -6 157 -15 209 -20 52 -5 299 -9 549 -10
l453 0 39 39 39 39 0 341 c0 277 -3 347 -14 370 -30 57 -24 56 -340 53 -288
-2 -706 10 -861 27 -44 5 -97 16 -117 25 -21 9 -44 16 -53 16 -8 0 -40 19 -69
43 -30 23 -70 53 -90 67 -64 46 -162 218 -138 242 15 15 -36 14 1023 16 894 2
948 3 969 20 47 38 74 368 46 555 -9 59 -16 129 -16 155 0 26 -9 73 -19 103
-11 30 -23 80 -27 110 -4 29 -15 71 -25 91 -11 21 -19 46 -19 57 0 11 -19 60
-43 108 -88 181 -231 379 -326 454 -24 19 -51 41 -61 49 -61 55 -198 148 -245
165 -16 7 -47 19 -67 28 -21 10 -42 17 -48 17 -6 0 -27 8 -48 19 -20 10 -67
24 -104 30 -36 6 -83 19 -105 28 -31 13 -85 17 -308 19 -148 2 -286 -1 -305
-5z m499 -849 c38 -18 84 -52 112 -82 27 -27 53 -50 59 -50 9 0 31 -36 58 -95
30 -63 51 -138 56 -197 6 -62 5 -67 -15 -73 -35 -12 -1046 -7 -1068 4 -16 9
-18 18 -14 53 10 87 84 239 152 311 31 34 173 129 216 145 45 17 87 20 240 18
134 -3 143 -4 204 -34z"/>
<path d="M17360 4829 c-592 -5 -765 -9 -842 -21 -54 -9 -103 -20 -110 -26 -7
-5 -49 -24 -93 -41 -90 -36 -137 -65 -211 -131 -29 -25 -70 -58 -91 -75 -62
-47 -170 -192 -219 -295 -94 -197 -99 -617 -11 -873 28 -80 133 -218 239 -313
69 -63 233 -155 299 -169 19 -4 51 -16 71 -26 22 -11 58 -19 90 -19 29 0 80
-7 113 -16 47 -12 147 -17 468 -22 l408 -7 45 -47 44 -47 0 -79 c0 -90 -12
-114 -84 -160 l-41 -27 -740 -2 c-407 -1 -752 -2 -767 -2 -14 -1 -40 -12 -56
-26 l-30 -25 0 -336 c-1 -264 2 -344 13 -370 28 -67 -17 -64 927 -64 704 0
861 2 898 14 25 8 76 21 115 30 65 16 224 88 306 139 58 36 145 117 217 202
178 209 235 379 236 695 1 195 -4 217 -77 424 -34 97 -50 127 -84 163 -23 24
-47 52 -53 64 -22 39 -84 100 -123 121 -22 11 -61 34 -86 52 -25 18 -75 43
-110 55 -36 12 -73 27 -83 32 -10 6 -56 17 -102 25 -46 8 -106 22 -132 31 -42
14 -108 17 -464 18 l-415 2 -43 29 c-47 31 -82 89 -82 135 0 51 35 115 69 127
17 6 31 15 31 20 0 31 55 34 737 33 l682 -1 27 23 27 23 1 350 c1 192 0 355
-2 362 -7 20 -60 44 -116 51 -28 3 -386 3 -796 0z"/>
<path d="M30578 4809 c-87 -8 -231 -50 -304 -87 -98 -50 -245 -179 -281 -247
-8 -16 -21 -37 -28 -45 -17 -19 -65 -118 -94 -192 -41 -103 -44 -213 -45
-1408 -1 -1227 -3 -1190 51 -1211 28 -10 809 -11 868 -1 73 13 69 -57 67 1107
-1 572 1 1066 4 1098 6 49 12 64 44 97 21 22 63 49 96 63 59 24 59 24 382 21
l323 -4 25 27 c13 14 24 38 24 52 1 63 1 687 1 699 -1 7 -17 20 -36 28 -29 12
-117 14 -522 13 -268 -1 -527 -5 -575 -10z"/>
<path d="M14488 2694 c-4 -3 -49 -10 -99 -15 -50 -5 -97 -13 -103 -18 -6 -5
-25 -12 -43 -15 -17 -4 -37 -14 -44 -22 -6 -8 -18 -14 -26 -14 -14 0 -123
-106 -123 -120 0 -4 -13 -24 -30 -45 -16 -21 -30 -46 -30 -55 0 -10 -7 -23
-15 -30 -8 -7 -15 -25 -15 -40 0 -15 -7 -63 -16 -106 -15 -74 -15 -85 1 -174
21 -113 44 -175 91 -240 77 -107 233 -200 339 -200 28 0 67 -4 88 -9 47 -11
254 6 282 24 11 6 32 15 47 19 34 8 98 45 98 57 0 5 14 16 30 24 17 9 46 40
65 70 19 29 39 56 44 59 5 3 12 18 16 33 3 16 12 35 19 43 16 19 46 170 46
233 0 27 -4 67 -9 90 -6 23 -13 58 -16 78 -11 73 -130 234 -216 292 -51 35
-151 64 -243 72 -43 3 -91 8 -105 11 -14 3 -29 2 -33 -2z"/>
    </g>
  </g>
</svg>